SplineFontDB: 3.0
FontName: Techna-Regular
FullName: Techna Regular
FamilyName: Techna
Weight: Regular
Copyright: Copyright (c) 2019, Carl Enlund
UComments: "2019-5-11: Created with FontForge (http://fontforge.org)"
Version: 001.000
ItalicAngle: 0
UnderlinePosition: -100
UnderlineWidth: 50
Ascent: 800
Descent: 200
InvalidEm: 0
LayerCount: 2
Layer: 0 0 "Back" 1
Layer: 1 0 "Fore" 0
XUID: [1021 637 837473831 1446149]
FSType: 0
OS2Version: 0
OS2_WeightWidthSlopeOnly: 0
OS2_UseTypoMetrics: 1
CreationTime: 1557605594
ModificationTime: 1557952537
PfmFamily: 17
TTFWeight: 400
TTFWidth: 5
LineGap: 90
VLineGap: 0
OS2TypoAscent: 0
OS2TypoAOffset: 1
OS2TypoDescent: 0
OS2TypoDOffset: 1
OS2TypoLinegap: 0
OS2WinAscent: 0
OS2WinAOffset: 1
OS2WinDescent: 0
OS2WinDOffset: 1
HheadAscent: 0
HheadAOffset: 1
HheadDescent: 0
HheadDOffset: 1
OS2Vendor: 'PfEd'
MarkAttachClasses: 1
DEI: 91125
LangName: 1033
Encoding: ISO8859-1
UnicodeInterp: none
NameList: AGL For New Fonts
DisplaySize: -72
AntiAlias: 1
FitToEm: 0
WinInfo: 0 25 9
BeginPrivate: 0
EndPrivate
Grid
-1000 503 m 4
 2000 503 l 1028
-1000 404 m 0
 2000 404 l 1024
-1000 413.916992188 m 0
 2000 413.916992188 l 1024
-1000 688 m 0
 2000 688 l 1024
EndSplineSet
BeginChars: 256 34

StartChar: D
Encoding: 68 68 0
Width: 706
VWidth: 0
Flags: HW
LayerCount: 2
Fore
SplineSet
332 121 m 5
 332 0 l 5
 147 0 l 1
 147 121 l 1
 332 121 l 5
342 688 m 5
 336 567 l 5
 147 567 l 1
 147 688 l 1
 342 688 l 5
65 0 m 1
 65 688 l 1
 199 688 l 1
 199 0 l 1
 65 0 l 1
342 688 m 5
 564.498591549 688 681 540.865497076 681 348 c 3
 681 150.017595308 561.06197183 0 332 0 c 5
 332 121 l 5
 477.946902655 121 549 221.337837838 549 346 c 3
 549 468.445945946 479.256637169 567 336 567 c 5
 342 688 l 5
EndSplineSet
EndChar

StartChar: E
Encoding: 69 69 1
Width: 566
VWidth: 0
Flags: HW
LayerCount: 2
Fore
SplineSet
130 412.916992188 m 1
 458 412.916992188 l 1
 427 293 l 1
 129 292.916992188 l 1
 130 412.916992188 l 1
130 124 m 1
 531 124 l 1
 564 0 l 1
 130 0 l 1
 130 124 l 1
130 688 m 1
 528 688 l 1
 496 564 l 1
 130 564 l 1
 130 688 l 1
65 0 m 1
 65 688 l 1
 199 688 l 1
 199 0 l 1
 65 0 l 1
EndSplineSet
EndChar

StartChar: C
Encoding: 67 67 2
Width: 630
VWidth: 0
Flags: HW
LayerCount: 2
Fore
SplineSet
572 547 m 5
 549.413333334 552.5 495 569 418 569 c 7
 308.343161753 569 158 520.896720852 158 345 c 3
 158 179.712446352 295.00731445 113 426 113 c 3
 487.186813187 113 560.802197802 128.141151951 600 146 c 1
 600 18 l 1
 566.663366337 4.03703703704 500.549661282 -11 418 -11 c 3
 242.425974026 -11 25 72.3073515917 25 339 c 3
 25 629.174890775 268.901000976 697 437 697 c 7
 514.827935512 697 577.318181818 683.105263158 605 675 c 5
 572 547 l 5
EndSplineSet
EndChar

StartChar: G
Encoding: 71 71 3
Width: 714
VWidth: 0
Flags: HW
LayerCount: 2
Fore
SplineSet
603 541 m 1
 576.880434783 548 514 568 425 568 c 3
 307.322222222 568 158 523 158 345 c 3
 158 179.712446352 287.128571429 113 434 113 c 7
 499.063583815 113 560.242774566 132.023809524 602 160 c 5
 651 33 l 5
 609.47639485 11.4680851064 523 -11 426 -11 c 7
 235.880597015 -11 25 72.7606837607 25 339 c 3
 25 630 268.224637681 697 436 697 c 3
 534.058252427 697 602.990291262 680 636 670 c 1
 603 541 l 1
523 33 m 5
 523 354 l 1
 651 354 l 1
 651 33 l 5
 523 33 l 5
363 404 m 1
 651 404 l 1
 651 285 l 1
 332 285 l 1
 363 404 l 1
EndSplineSet
EndChar

StartChar: T
Encoding: 84 84 4
Width: 584
VWidth: 0
Flags: HW
LayerCount: 2
Fore
SplineSet
576 688 m 5
 576 564 l 5
 1 564 l 1
 33 688 l 1
 576 688 l 5
232 0 m 1
 232 639 l 1
 366 639 l 1
 366 0 l 1
 232 0 l 1
EndSplineSet
EndChar

StartChar: H
Encoding: 72 72 5
Width: 671
VWidth: 0
Flags: HW
LayerCount: 2
Fore
SplineSet
126 413.916992188 m 1
 654 413.916992188 l 1
 631 291 l 5
 126 290.916992188 l 1
 126 413.916992188 l 1
441 0 m 1
 441 688 l 1
 575 688 l 1
 575 0 l 1
 441 0 l 1
65 0 m 1
 65 688 l 1
 199 688 l 1
 199 0 l 1
 65 0 l 1
EndSplineSet
EndChar

StartChar: N
Encoding: 78 78 6
Width: 651
VWidth: 0
Flags: HW
LayerCount: 2
Fore
SplineSet
105 652 m 1
 191 688 l 1
 221 688 l 1
 557 36 l 5
 472 0 l 1
 442 0 l 1
 105 652 l 1
452 0 m 1
 452 688 l 1
 586 688 l 1
 586 0 l 1
 452 0 l 1
65 0 m 1
 65 688 l 1
 199 688 l 1
 199 0 l 1
 65 0 l 1
EndSplineSet
EndChar

StartChar: A
Encoding: 65 65 7
Width: 642
VWidth: 0
Flags: HW
LayerCount: 2
Back
SplineSet
847 403.916992188 m 1
 1338 403.916992188 l 1
 1308 285.916992188 l 1
 847 285.916992188 l 1
 847 403.916992188 l 1
1111 0 m 1
 1111 688 l 1
 1245 688 l 1
 1245 0 l 1
 1111 0 l 1
847 688 m 1
 1166 688 l 1
 1166 566 l 1
 847 566 l 1
 847 688 l 1
766 0 m 1
 766 688 l 1
 900 688 l 1
 900 0 l 1
 766 0 l 1
EndSplineSet
Fore
SplineSet
464 0 m 5
 302 688 l 5
 437 688 l 5
 600 0 l 5
 464 0 l 5
191 688 m 5
 428 688 l 5
 428 566 l 5
 189 566 l 5
 191 688 l 5
15 0 m 5
 178 688 l 5
 311 688 l 5
 149 0 l 5
 15 0 l 5
129 298.916992188 m 5
 627 298.916992188 l 5
 605 180.916992188 l 5
 129 180.916992188 l 5
 129 298.916992188 l 5
EndSplineSet
EndChar

StartChar: B
Encoding: 66 66 8
Width: 600
VWidth: 0
Flags: HW
LayerCount: 2
Fore
SplineSet
340 118 m 1
 349 0 l 1
 147 0 l 1
 147 118 l 1
 340 118 l 1
386 406 m 1
 386 292 l 1
 147 292 l 1
 147 406 l 1
 386 406 l 1
340 384 m 1
 479.380530973 384 565 304.771556528 565 192 c 3
 565 87.3669525525 487.79653702 0 349 0 c 1
 340 118 l 1
 399.85840708 118 429 157.689189189 429 207 c 3
 429 254.094594595 399.85840708 292 340 292 c 1
 340 384 l 1
343 688 m 1
 332 568 l 1
 147 568 l 1
 147 688 l 1
 343 688 l 1
65 0 m 1
 65 688 l 1
 199 688 l 1
 199 0 l 1
 65 0 l 1
343 688 m 1
 477.019417476 688 546 605.661050157 546 511 c 3
 546 404.27887753 467.731481481 331 332 331 c 5
 332 406 l 1
 385.805309734 406 412 442.567567568 412 488 c 3
 412 532.324324324 385.805309734 568 332 568 c 1
 343 688 l 1
EndSplineSet
EndChar

StartChar: F
Encoding: 70 70 9
Width: 535
VWidth: 0
InSpiro: 1
Flags: HW
LayerCount: 2
Fore
SplineSet
130 406.917 m 1
 456 406.917 l 1
 424 286 l 1
 130 286 l 1
 130 406.917 l 1
  Spiro
    130 406.917 v
    456 406.917 v
    424 286 v
    130 286 v
    0 0 z
  EndSpiro
130 688 m 1
 530 688 l 1
 497 564 l 1
 130 564 l 1
 130 688 l 1
  Spiro
    130 688 v
    530 688 v
    497 564 v
    130 564 v
    0 0 z
  EndSpiro
65 0 m 1
 65 688 l 1
 199 688 l 1
 199 0 l 1
 65 0 l 1
  Spiro
    65 0 v
    65 688 v
    199 688 v
    199 0 v
    0 0 z
  EndSpiro
EndSplineSet
EndChar

StartChar: I
Encoding: 73 73 10
Width: 274
VWidth: 0
Flags: HW
LayerCount: 2
Fore
SplineSet
70 0 m 1
 70 688 l 1
 204 688 l 1
 204 0 l 1
 70 0 l 1
EndSplineSet
EndChar

StartChar: L
Encoding: 76 76 11
Width: 536
VWidth: 0
Flags: HW
LayerCount: 2
Fore
SplineSet
65 0 m 1
 65 688 l 1
 199 688 l 1
 199 0 l 1
 65 0 l 1
130 0 m 1
 130 124 l 1
 531 124 l 5
 500 0 l 5
 130 0 l 1
EndSplineSet
EndChar

StartChar: M
Encoding: 77 77 12
Width: 761
VWidth: 0
Flags: HW
LayerCount: 2
Fore
SplineSet
562 0 m 1
 562 688 l 1
 696 688 l 1
 696 0 l 1
 562 0 l 1
332 270 m 5
 332 332 l 5
 538 688 l 1
 656 688 l 1
 435 270 l 1
 332 270 l 5
328 270 m 5
 103 688 l 1
 225 688 l 1
 433 334 l 1
 433 270 l 1
 328 270 l 5
65 0 m 1
 65 688 l 1
 199 688 l 1
 199 0 l 1
 65 0 l 1
EndSplineSet
EndChar

StartChar: O
Encoding: 79 79 13
Width: 798
VWidth: 0
Flags: HW
LayerCount: 2
Fore
SplineSet
399 706 m 3
 643.691489362 706 773 538.621687238 773 346 c 3
 773 151.155638656 643.691489362 -18 399 -18 c 3
 154.308510638 -18 25 151.155638656 25 346 c 3
 25 538.621687238 154.308510638 706 399 706 c 3
399 586 m 3
 240.303346278 586 157 470.033163265 157 346 c 7
 157 219.899617347 240.303346278 102 399 102 c 3
 557.696653722 102 641 219.899617347 641 346 c 3
 641 470.033163265 557.696653722 586 399 586 c 3
EndSplineSet
EndChar

StartChar: P
Encoding: 80 80 14
Width: 571
VWidth: 0
Flags: HW
LayerCount: 2
Fore
SplineSet
327 395 m 5
 330 275 l 1
 147 275 l 1
 147 395 l 1
 327 395 l 5
336 688 m 1
 327 566 l 5
 147 566 l 1
 147 688 l 1
 336 688 l 1
65 0 m 1
 65 688 l 1
 199 688 l 1
 199 0 l 1
 65 0 l 1
336 688 m 1
 478.136485579 688 551 599.719298246 551 484 c 3
 551 365.096774194 476.073852373 275 330 275 c 1
 327 395 l 5
 387.957172511 395 416 432.908249165 416 482 c 3
 416 528.54054054 387.957172511 566 327 566 c 5
 336 688 l 1
EndSplineSet
EndChar

StartChar: Q
Encoding: 81 81 15
Width: 788
VWidth: 0
Flags: HW
LayerCount: 2
Fore
SplineSet
662 -61 m 5
 355 227 l 5
 438 313 l 5
 745 25 l 5
 662 -61 l 5
EndSplineSet
Refer: 13 79 N 1 0 0 1 0 0 2
EndChar

StartChar: R
Encoding: 82 82 16
Width: 586
VWidth: 0
Flags: HW
LayerCount: 2
Fore
SplineSet
327 395 m 1
 330 280 l 1
 147 280 l 1
 147 395 l 1
 327 395 l 1
338 688 m 1
 327 566 l 1
 147 566 l 1
 147 688 l 1
 338 688 l 1
65 0 m 1
 65 688 l 1
 199 688 l 1
 199 0 l 1
 65 0 l 1
338 688 m 5
 476.785849694 688 551 599.883040936 551 491 c 3
 551 370.096774194 479.073852373 280 330 280 c 5
 327 395 l 1
 387.957172511 395 416 432.908249165 416 482 c 3
 416 528.54054054 387.957172511 566 327 566 c 1
 338 688 l 5
409 0 m 1
 257 328 l 1
 404 328 l 1
 556 0 l 1
 409 0 l 1
EndSplineSet
EndChar

StartChar: U
Encoding: 85 85 17
Width: 630
VWidth: 0
Flags: HW
LayerCount: 2
Fore
SplineSet
197 235 m 6
 197 150.431910569 236.173727101 107 315 107 c 3
 393.826272899 107 433 150.431910569 433 235 c 6
 433 688 l 1
 567 688 l 1
 567 227 l 6
 567 75.2108888745 479.871984374 -17 315 -17 c 3
 150.128015626 -17 63 75.2108888745 63 227 c 6
 63 688 l 1
 197 688 l 1
 197 235 l 6
EndSplineSet
EndChar

StartChar: V
Encoding: 86 86 18
Width: 591
VWidth: 0
Flags: HW
LayerCount: 2
Fore
SplineSet
259 0 m 1
 438 688 l 5
 576 688 l 1
 388 0 l 1
 259 0 l 1
203 0 m 1
 15 688 l 1
 157 688 l 1
 336 0 l 1
 203 0 l 1
EndSplineSet
EndChar

StartChar: Z
Encoding: 90 90 19
Width: 560
VWidth: 0
Flags: HW
LayerCount: 2
Fore
SplineSet
26 20 m 1
 108 121 l 1
 555 121 l 1
 522 0 l 1
 26 0 l 1
 26 20 l 1
530 668 m 5
 447 567 l 5
 22 567 l 1
 55 688 l 1
 530 688 l 5
 530 668 l 5
26 20 m 1
 376 654 l 5
 530 668 l 5
 180 36 l 1
 26 20 l 1
EndSplineSet
EndChar

StartChar: W
Encoding: 87 87 21
Width: 865
VWidth: 0
Flags: HW
LayerCount: 2
Fore
SplineSet
581 0 m 1
 700 688 l 1
 835 688 l 1
 707 0 l 1
 581 0 l 1
548 0 m 1
 382 688 l 5
 499 688 l 1
 661 0 l 1
 548 0 l 1
208 0 m 1
 370 688 l 1
 483 688 l 1
 317 0 l 1
 208 0 l 1
158 0 m 1
 30 688 l 1
 169 688 l 1
 288 0 l 1
 158 0 l 1
EndSplineSet
EndChar

StartChar: Y
Encoding: 89 89 22
Width: 575
VWidth: 0
Flags: HW
LayerCount: 2
Fore
SplineSet
221 0 m 1
 221 329 l 1
 355 329 l 1
 355 0 l 1
 221 0 l 1
224 255 m 1
 431 688 l 1
 575 688 l 1
 351 245 l 5
 224 255 l 1
223 244 m 5
 0 688 l 1
 148 688 l 1
 355 258 l 1
 223 244 l 5
EndSplineSet
EndChar

StartChar: X
Encoding: 88 88 23
Width: 598
VWidth: 0
Flags: HW
LayerCount: 2
Back
SplineSet
150 0 m 5
 1 0 l 5
 432 688 l 5
 580 688 l 5
 150 0 l 5
440 0 m 5
 18 688 l 5
 172 688 l 5
 593 0 l 5
 440 0 l 5
EndSplineSet
Fore
SplineSet
155 0 m 5
 6 0 l 5
 210.015625 355.854492188 l 5
 23 688 l 5
 177 688 l 5
 306.1953125 449.426757812 l 5
 437 688 l 5
 585 688 l 5
 394.020507812 357.194335938 l 5
 598 0 l 5
 445 0 l 5
 297.840820312 263.62109375 l 5
 155 0 l 5
EndSplineSet
EndChar

StartChar: S
Encoding: 83 83 24
Width: 509
VWidth: 0
Flags: HW
LayerCount: 2
Fore
SplineSet
465 667 m 5
 434 542 l 5
 381.265625 568.27027027 327.497070312 578 282 578 c 3
 213 578 170 555 170 502 c 3
 170 461.482421875 191.313476562 446.421875 260 418 c 2
 318 394 l 2
 428.170898438 348.412109375 487 305 487 195 c 3
 487 61 391 -11 247 -11 c 3
 161.838867188 -11 89 11.548828125 44 39 c 1
 44 174 l 1
 106.104492188 129.333984375 182.6953125 107 252 107 c 3
 317 107 354 131.29296875 354 190 c 3
 354 232.033203125 323.325195312 246.48828125 251 277 c 2
 187 304 l 2
 105.627929688 338.329101562 37 375.6328125 37 499 c 3
 37 622.00390625 132 699 291 699 c 3
 358.953125 699 426.905273438 685.424242424 465 667 c 5
EndSplineSet
EndChar

StartChar: K
Encoding: 75 75 25
Width: 603
VWidth: 0
Flags: HW
LayerCount: 2
Back
SplineSet
121 413.916992188 m 5
 649 413.916992188 l 5
 626 291 l 5
 121 290.916992188 l 5
 121 413.916992188 l 5
436 0 m 5
 436 688 l 5
 570 688 l 5
 570 0 l 5
 436 0 l 5
60 0 m 5
 60 688 l 5
 194 688 l 5
 194 0 l 5
 60 0 l 5
EndSplineSet
Fore
SplineSet
191 413.916992188 m 1
 348 413.916992188 l 1
 606 0 l 1
 451 0 l 1
 191 413.916992188 l 1
126 413.916992188 m 1
 281 413.916992188 l 1
 281 291 l 1
 126 290.916992188 l 1
 126 413.916992188 l 1
196 291 m 1
 441 688 l 1
 590 688 l 1
 345 291 l 5
 196 291 l 1
65 0 m 1
 65 688 l 1
 199 688 l 1
 199 0 l 1
 65 0 l 1
EndSplineSet
EndChar

StartChar: J
Encoding: 74 74 26
Width: 486
VWidth: 0
Flags: HW
LayerCount: 2
Fore
SplineSet
359 688 m 1
 359 564 l 1
 44 564 l 1
 76 688 l 1
 170.333007812 688 264.666992188 688 359 688 c 1
40 147 m 5
 81.4951171875 126.076612903 118.338867188 115 167 115 c 3
 245.080078125 115 289 149 289 228 c 2
 289 688 l 1
 423 688 l 1
 423 217 l 2
 423 65 339.424804688 -9 181 -9 c 3
 130.143554688 -9 69.1728515625 1.73046875 40 22 c 1
 40 147 l 5
EndSplineSet
EndChar

StartChar: Odieresis
Encoding: 214 214 27
Width: 788
VWidth: 0
Flags: HW
LayerCount: 2
Fore
SplineSet
449 652 m 1
 449 820 l 1
 593 820 l 1
 593 652 l 1
 449 652 l 1
205 652 m 1
 205 820 l 1
 349 820 l 1
 349 652 l 1
 205 652 l 1
EndSplineSet
Refer: 13 79 N 1 0 0 1 0 0 2
EndChar

StartChar: o
Encoding: 111 111 28
Width: 594
VWidth: 0
Flags: HW
LayerCount: 2
Fore
SplineSet
297 518 m 3
 468.567658619 518 567 402 567 252 c 7
 567 101 468.567658619 -15 297 -15 c 3
 125.432341381 -15 27 101 27 252 c 7
 27 402 125.432341381 518 297 518 c 3
297 404 m 3
 204.807692308 404 156 336.106666667 156 252 c 3
 156 167.900662252 204.807692308 99 297 99 c 3
 389.192307692 99 438 167.900662252 438 252 c 3
 438 336.106666667 389.192307692 404 297 404 c 3
EndSplineSet
EndChar

StartChar: i
Encoding: 105 105 29
Width: 259
VWidth: 0
Flags: HW
LayerCount: 2
Fore
SplineSet
65 567 m 5
 65 688 l 1
 194 688 l 1
 194 567 l 5
 65 567 l 5
65 0 m 1
 65 503 l 1
 194 503 l 1
 194 0 l 1
 65 0 l 1
EndSplineSet
EndChar

StartChar: hyphen
Encoding: 45 45 30
Width: 399
VWidth: 0
Flags: HW
LayerCount: 2
Fore
SplineSet
364 363 m 5
 364 239 l 5
 23 239 l 5
 55 363 l 5
 364 363 l 5
EndSplineSet
EndChar

StartChar: l
Encoding: 108 108 31
Width: 259
VWidth: 0
Flags: HW
LayerCount: 2
Fore
SplineSet
65 0 m 1
 65 688 l 5
 194 688 l 5
 194 0 l 1
 65 0 l 1
EndSplineSet
EndChar

StartChar: n
Encoding: 110 110 32
Width: 566
VWidth: 0
Flags: HWO
LayerCount: 2
Fore
SplineSet
65 0 m 1
 65 503 l 1
 190 503 l 1
 191 360 l 1
 194 360 l 1
 194 0 l 1
 65 0 l 1
177 358 m 1
 177 450.981132075 235.293413174 512 342 512 c 3
 446.263803681 512 507 444.397660819 507 342 c 2
 507 0 l 1
 378 0 l 1
 378 303 l 2
 378 357.785714286 349.674418605 394 291 394 c 3
 229.632653061 394 194 356.756756757 194 288 c 5
 177 358 l 1
EndSplineSet
EndChar

StartChar: h
Encoding: 104 104 33
Width: 566
VWidth: 0
Flags: HW
LayerCount: 2
Fore
SplineSet
65 0 m 1
 65 688 l 1
 194 688 l 1
 194 0 l 1
 65 0 l 1
177 358 m 1
 177 450.981132075 235.293413174 512 342 512 c 3
 446.263803681 512 507 444.397660819 507 342 c 2
 507 0 l 1
 378 0 l 1
 378 303 l 2
 378 357.785714286 349.674418605 394 291 394 c 3
 229.632653061 394 194 356.756756757 194 288 c 5
 177 358 l 1
EndSplineSet
EndChar
